<svg xmlns="http://www.w3.org/2000/svg" width="440" height="342" viewBox="0 0 440 342" data-unit-id="opc_138" data-gate-view="1">
<style>
    text{font-family:system-ui,sans-serif;user-select:none}
    .title{font-size:13px;font-weight:600;fill:#e6edf3}
    .subtitle{font-size:10px;fill:#8b949e}
    .gate-label{font-size:14px;font-weight:700;fill:#e6edf3}
    .gate-sub{font-size:9px;fill:#8b949e}
    .port-label{font-size:11px;fill:#c9d1d9}
    .pin-label{font-size:9px;fill:#8b949e}
    .col-hdr{font-size:9px;fill:#6e7681;text-transform:uppercase}
    </style>
<text x="40.0" y="28.0" class="title">opcode class 138</text>
<text x="40.0" y="40.0" class="subtitle">DEC 3:8 · opc_138</text>
<text x="24.0" y="48.0" class="col-hdr">in</text>
<text x="360.0" y="48.0" class="col-hdr">out</text>
<g id="gate">
<rect x="166.0" y="132.0" width="68" height="56" rx="4" fill="#21262d" stroke="#d29922" stroke-width="2"/>
<text x="200.0" y="164.0" text-anchor="middle" class="gate-label">138</text>
</g>
<g id="wires">
<polyline class="wire-seg" data-net="net_opc0" points="74.0,50.0 168.0,50.0 168.0,160.0" fill="none" stroke="#5bebaa" stroke-width="1.5" opacity="0.8"/>
<polyline class="wire-seg" data-net="net_opc1" points="74.0,72.0 168.0,72.0 168.0,160.0" fill="none" stroke="#d4947b" stroke-width="1.5" opacity="0.8"/>
<polyline class="wire-seg" data-net="net_opc2" points="74.0,94.0 168.0,94.0 168.0,160.0" fill="none" stroke="#82b0a7" stroke-width="1.5" opacity="0.8"/>
<polyline class="wire-seg" data-net="net_opc_cls0" points="74.0,116.0 168.0,116.0 168.0,160.0" fill="none" stroke="#836a93" stroke-width="1.5" opacity="0.8"/>
<polyline class="wire-seg" data-net="net_opc_cls1" points="74.0,138.0 168.0,138.0 168.0,160.0" fill="none" stroke="#edebae" stroke-width="1.5" opacity="0.8"/>
<polyline class="wire-seg" data-net="net_opc_cls2" points="74.0,160.0 168.0,160.0 168.0,160.0" fill="none" stroke="#cd9bc4" stroke-width="1.5" opacity="0.8"/>
<polyline class="wire-seg" data-net="net_opc_cls3" points="74.0,182.0 168.0,182.0 168.0,160.0" fill="none" stroke="#a98ebe" stroke-width="1.5" opacity="0.8"/>
<polyline class="wire-seg" data-net="net_opc_cls4" points="74.0,204.0 168.0,204.0 168.0,160.0" fill="none" stroke="#ce9ac0" stroke-width="1.5" opacity="0.8"/>
<polyline class="wire-seg" data-net="net_opc_cls5" points="74.0,226.0 168.0,226.0 168.0,160.0" fill="none" stroke="#cdc6e3" stroke-width="1.5" opacity="0.8"/>
<polyline class="wire-seg" data-net="net_opc_cls6" points="74.0,248.0 168.0,248.0 168.0,160.0" fill="none" stroke="#e474b2" stroke-width="1.5" opacity="0.8"/>
<polyline class="wire-seg" data-net="net_opc_cls7" points="74.0,270.0 168.0,270.0 168.0,160.0" fill="none" stroke="#c1f28c" stroke-width="1.5" opacity="0.8"/>
</g>
<g id="ports">
<g class="port in" data-net="net_opc0"><circle cx="74.0" cy="50.0" r="3.5" fill="#5bebaa"/><text x="24.0" y="54.0" class="port-label">opc0</text><text x="82.0" y="54.0" class="pin-label">A</text></g>
<g class="port in" data-net="net_opc1"><circle cx="74.0" cy="72.0" r="3.5" fill="#d4947b"/><text x="24.0" y="76.0" class="port-label">opc1</text><text x="82.0" y="76.0" class="pin-label">B</text></g>
<g class="port in" data-net="net_opc2"><circle cx="74.0" cy="94.0" r="3.5" fill="#82b0a7"/><text x="24.0" y="98.0" class="port-label">opc2</text><text x="82.0" y="98.0" class="pin-label">C</text></g>
<g class="port in" data-net="net_opc_cls0"><circle cx="74.0" cy="116.0" r="3.5" fill="#836a93"/><text x="24.0" y="120.0" class="port-label">opc_cls0</text><text x="82.0" y="120.0" class="pin-label">Y0</text></g>
<g class="port in" data-net="net_opc_cls1"><circle cx="74.0" cy="138.0" r="3.5" fill="#edebae"/><text x="24.0" y="142.0" class="port-label">opc_cls1</text><text x="82.0" y="142.0" class="pin-label">Y1</text></g>
<g class="port in" data-net="net_opc_cls2"><circle cx="74.0" cy="160.0" r="3.5" fill="#cd9bc4"/><text x="24.0" y="164.0" class="port-label">opc_cls2</text><text x="82.0" y="164.0" class="pin-label">Y2</text></g>
<g class="port in" data-net="net_opc_cls3"><circle cx="74.0" cy="182.0" r="3.5" fill="#a98ebe"/><text x="24.0" y="186.0" class="port-label">opc_cls3</text><text x="82.0" y="186.0" class="pin-label">Y3</text></g>
<g class="port in" data-net="net_opc_cls4"><circle cx="74.0" cy="204.0" r="3.5" fill="#ce9ac0"/><text x="24.0" y="208.0" class="port-label">opc_cls4</text><text x="82.0" y="208.0" class="pin-label">Y4</text></g>
<g class="port in" data-net="net_opc_cls5"><circle cx="74.0" cy="226.0" r="3.5" fill="#cdc6e3"/><text x="24.0" y="230.0" class="port-label">opc_cls5</text><text x="82.0" y="230.0" class="pin-label">Y5</text></g>
<g class="port in" data-net="net_opc_cls6"><circle cx="74.0" cy="248.0" r="3.5" fill="#e474b2"/><text x="24.0" y="252.0" class="port-label">opc_cls6</text><text x="82.0" y="252.0" class="pin-label">Y6</text></g>
<g class="port in" data-net="net_opc_cls7"><circle cx="74.0" cy="270.0" r="3.5" fill="#c1f28c"/><text x="24.0" y="274.0" class="port-label">opc_cls7</text><text x="82.0" y="274.0" class="pin-label">Y7</text></g>
</g>
</svg>