<svg xmlns="http://www.w3.org/2000/svg" width="440" height="188" viewBox="0 0 440 188" data-unit-id="phase_161" data-gate-view="1">
<style>
    text{font-family:system-ui,sans-serif;user-select:none}
    .title{font-size:13px;font-weight:600;fill:#e6edf3}
    .subtitle{font-size:10px;fill:#8b949e}
    .gate-label{font-size:14px;font-weight:700;fill:#e6edf3}
    .gate-sub{font-size:9px;fill:#8b949e}
    .port-label{font-size:11px;fill:#c9d1d9}
    .pin-label{font-size:9px;fill:#8b949e}
    .col-hdr{font-size:9px;fill:#6e7681;text-transform:uppercase}
    </style>
<text x="40.0" y="28.0" class="title">phase 161</text>
<text x="40.0" y="40.0" class="subtitle">CNT 4-bit · phase_161</text>
<text x="24.0" y="48.0" class="col-hdr">in</text>
<text x="360.0" y="48.0" class="col-hdr">out</text>
<g id="gate">
<rect x="166.0" y="55.0" width="68" height="56" rx="4" fill="#21262d" stroke="#3fb950" stroke-width="2"/>
<text x="200.0" y="87.0" text-anchor="middle" class="gate-label">161</text>
</g>
<g id="wires">
<polyline class="wire-seg" data-net="net_clk" points="74.0,50.0 168.0,50.0 168.0,83.0" fill="none" stroke="#906c93" stroke-width="1.5" opacity="0.8"/>
<polyline class="wire-seg" data-net="net_macro_end" points="74.0,72.0 168.0,72.0 168.0,83.0" fill="none" stroke="#a9d5ba" stroke-width="1.5" opacity="0.8"/>
<polyline class="wire-seg" data-net="net_phase0" points="74.0,94.0 168.0,94.0 168.0,83.0" fill="none" stroke="#8273d6" stroke-width="1.5" opacity="0.8"/>
<polyline class="wire-seg" data-net="net_phase1" points="74.0,116.0 168.0,116.0 168.0,83.0" fill="none" stroke="#6271d0" stroke-width="1.5" opacity="0.8"/>
</g>
<g id="ports">
<g class="port in" data-net="net_clk"><circle cx="74.0" cy="50.0" r="3.5" fill="#906c93"/><text x="24.0" y="54.0" class="port-label">clk</text><text x="82.0" y="54.0" class="pin-label">CLK</text></g>
<g class="port in" data-net="net_macro_end"><circle cx="74.0" cy="72.0" r="3.5" fill="#a9d5ba"/><text x="24.0" y="76.0" class="port-label">macro_end</text><text x="82.0" y="76.0" class="pin-label">LOAD</text></g>
<g class="port in" data-net="net_phase0"><circle cx="74.0" cy="94.0" r="3.5" fill="#8273d6"/><text x="24.0" y="98.0" class="port-label">phase0</text><text x="82.0" y="98.0" class="pin-label">QA</text></g>
<g class="port in" data-net="net_phase1"><circle cx="74.0" cy="116.0" r="3.5" fill="#6271d0"/><text x="24.0" y="120.0" class="port-label">phase1</text><text x="82.0" y="120.0" class="pin-label">QB</text></g>
</g>
</svg>