<svg xmlns="http://www.w3.org/2000/svg" width="440" height="144" viewBox="0 0 440 144" data-unit-id="wsel_153" data-gate-view="1">
<style>
    text{font-family:system-ui,sans-serif;user-select:none}
    .title{font-size:13px;font-weight:600;fill:#e6edf3}
    .subtitle{font-size:10px;fill:#8b949e}
    .gate-label{font-size:14px;font-weight:700;fill:#e6edf3}
    .gate-sub{font-size:9px;fill:#8b949e}
    .port-label{font-size:11px;fill:#c9d1d9}
    .pin-label{font-size:9px;fill:#8b949e}
    .col-hdr{font-size:9px;fill:#6e7681;text-transform:uppercase}
    </style>
<text x="40.0" y="28.0" class="title">w_sel 153</text>
<text x="40.0" y="40.0" class="subtitle">MUX 4:1 · wsel_153</text>
<text x="24.0" y="48.0" class="col-hdr">in</text>
<text x="360.0" y="48.0" class="col-hdr">out</text>
<g id="gate">
<path d="M168.0,25.0 L224.0,41.0 L224.0,81.0 L168.0,97.0 Z" fill="#21262d" stroke="#a371f7" stroke-width="2"/>
<text x="196.0" y="65.0" text-anchor="middle" class="gate-label">4:1</text>
</g>
<g id="wires">
<polyline class="wire-seg" data-net="net_opc0" points="74.0,50.0 168.0,50.0 168.0,61.0" fill="none" stroke="#5bebaa" stroke-width="1.5" opacity="0.8"/>
<polyline class="wire-seg" data-net="net_opc1" points="74.0,72.0 168.0,72.0 168.0,61.0" fill="none" stroke="#d4947b" stroke-width="1.5" opacity="0.8"/>
<polyline class="wire-seg" data-net="net_wsel0" points="224.0,61.0 224.0,50.0 350.0,50.0" fill="none" stroke="#e18de9" stroke-width="1.5" opacity="0.8"/>
<polyline class="wire-seg" data-net="net_wsel1" points="224.0,61.0 224.0,72.0 350.0,72.0" fill="none" stroke="#7ed6eb" stroke-width="1.5" opacity="0.8"/>
</g>
<g id="ports">
<g class="port in" data-net="net_opc0"><circle cx="74.0" cy="50.0" r="3.5" fill="#5bebaa"/><text x="24.0" y="54.0" class="port-label">opc0</text><text x="82.0" y="54.0" class="pin-label">A</text></g>
<g class="port in" data-net="net_opc1"><circle cx="74.0" cy="72.0" r="3.5" fill="#d4947b"/><text x="24.0" y="76.0" class="port-label">opc1</text><text x="82.0" y="76.0" class="pin-label">B</text></g>
<g class="port out" data-net="net_wsel0"><circle cx="350.0" cy="50.0" r="3.5" fill="#e18de9"/><text x="360.0" y="54.0" class="port-label">wsel0</text><text x="342.0" y="54.0" text-anchor="end" class="pin-label">1Y</text></g>
<g class="port out" data-net="net_wsel1"><circle cx="350.0" cy="72.0" r="3.5" fill="#7ed6eb"/><text x="360.0" y="76.0" class="port-label">wsel1</text><text x="342.0" y="76.0" text-anchor="end" class="pin-label">2Y</text></g>
</g>
</svg>