<svg xmlns="http://www.w3.org/2000/svg" width="976" height="328" viewBox="0 0 976 328" data-gate-graph="1">
<style>
    text{font-family:system-ui,sans-serif;user-select:none}
    .title{font-size:14px;font-weight:600;fill:#e6edf3}
    .subtitle{font-size:10px;fill:#8b949e}
    .col-label{font-size:10px;fill:#6e7681;font-weight:600}
    .node-label{font-size:10px;font-weight:600;fill:#e6edf3}
    .node-kind{font-size:8px;fill:#6e7681}
    .sym{font-size:16px;font-weight:700;fill:#58a6ff}
    .io-label{font-size:8px;fill:#8b949e}
  </style>
<text x="48.0" y="20.0" class="title">cpld_ctrl_cw16 gate connectivity</text>
<text x="48.0" y="34.0" class="subtitle">5 units · stage columns</text>
<g id="wires">
<polyline class="wire-seg" data-net="net_cw_addr0" points="168.0,66.0 248.0,66.0" fill="none" stroke="#cec88c" stroke-width="1.4" opacity="0.75"/>
<polyline class="wire-seg" data-net="net_cw_addr1" points="168.0,80.0 248.0,80.0" fill="none" stroke="#7768aa" stroke-width="1.4" opacity="0.75"/>
<polyline class="wire-seg" data-net="net_cw_addr2" points="168.0,94.0 248.0,94.0" fill="none" stroke="#f070d3" stroke-width="1.4" opacity="0.75"/>
<polyline class="wire-seg" data-net="net_cw_addr3" points="168.0,108.0 248.0,108.0" fill="none" stroke="#65dc96" stroke-width="1.4" opacity="0.75"/>
<polyline class="wire-seg" data-net="net_cw_hi0" points="248.0,150.0 448.0,122.0" fill="none" stroke="#9beaf0" stroke-width="1.4" opacity="0.75"/>
<polyline class="wire-seg" data-net="net_cw_hi1" points="248.0,164.0 448.0,136.0" fill="none" stroke="#59ebe7" stroke-width="1.4" opacity="0.75"/>
<polyline class="wire-seg" data-net="net_cw_hi2" points="248.0,178.0 448.0,150.0" fill="none" stroke="#6e6f9d" stroke-width="1.4" opacity="0.75"/>
<polyline class="wire-seg" data-net="net_cw_hi3" points="248.0,192.0 448.0,164.0" fill="none" stroke="#6af7db" stroke-width="1.4" opacity="0.75"/>
<polyline class="wire-seg" data-net="net_cw_hi4" points="248.0,206.0 448.0,178.0" fill="none" stroke="#d9ded0" stroke-width="1.4" opacity="0.75"/>
<polyline class="wire-seg" data-net="net_cw_hi5" points="248.0,220.0 448.0,192.0" fill="none" stroke="#f6c18f" stroke-width="1.4" opacity="0.75"/>
<polyline class="wire-seg" data-net="net_cw_hi6" points="248.0,234.0 448.0,206.0" fill="none" stroke="#93c6a7" stroke-width="1.4" opacity="0.75"/>
<polyline class="wire-seg" data-net="net_cw_hi7" points="248.0,248.0 448.0,220.0" fill="none" stroke="#98a6be" stroke-width="1.4" opacity="0.75"/>
<polyline class="wire-seg" data-net="net_cw_lo0" points="248.0,262.0 448.0,176.0" fill="none" stroke="#ddbff6" stroke-width="1.4" opacity="0.75"/>
<polyline class="wire-seg" data-net="net_cw_lo1" points="248.0,276.0 448.0,190.0" fill="none" stroke="#53657c" stroke-width="1.4" opacity="0.75"/>
<polyline class="wire-seg" data-net="net_cw_lo2" points="248.0,290.0 448.0,204.0" fill="none" stroke="#d47bc3" stroke-width="1.4" opacity="0.75"/>
<polyline class="wire-seg" data-net="net_cw_lo3" points="248.0,304.0 448.0,218.0" fill="none" stroke="#9ebdda" stroke-width="1.4" opacity="0.75"/>
<polyline class="wire-seg" data-net="net_cw_lo4" points="248.0,318.0 448.0,232.0" fill="none" stroke="#e0c186" stroke-width="1.4" opacity="0.75"/>
<polyline class="wire-seg" data-net="net_cw_lo5" points="248.0,332.0 448.0,246.0" fill="none" stroke="#a964de" stroke-width="1.4" opacity="0.75"/>
<polyline class="wire-seg" data-net="net_cw_lo6" points="248.0,346.0 448.0,260.0" fill="none" stroke="#90e7e5" stroke-width="1.4" opacity="0.75"/>
<polyline class="wire-seg" data-net="net_cw_lo7" points="248.0,360.0 448.0,274.0" fill="none" stroke="#8f657c" stroke-width="1.4" opacity="0.75"/>
<polyline class="wire-seg" data-net="net_clk" points="448.0,108.0 448.0,162.0" fill="none" stroke="#906c93" stroke-width="1.4" opacity="0.75"/>
<polyline class="wire-seg" data-net="net_pc_load_en" points="448.0,316.0 648.0,80.0" fill="none" stroke="#d47bd4" stroke-width="1.4" opacity="0.75"/>
</g>
<g id="io">
<g class="io-net" data-net="net_b_const_sel"><line class="wire-seg" x1="448.0" y1="66.0" x2="908.0" y2="48.0" stroke="#d29922" stroke-width="1.2"/><text x="914.0" y="52.0" class="io-label">b_const_sel</text></g>
<g class="io-net" data-net="net_b_sel"><line class="wire-seg" x1="448.0" y1="80.0" x2="908.0" y2="66.0" stroke="#d29922" stroke-width="1.2"/><text x="914.0" y="70.0" class="io-label">b_sel</text></g>
<g class="io-net" data-net="net_cin"><line class="wire-seg" x1="448.0" y1="94.0" x2="908.0" y2="84.0" stroke="#d29922" stroke-width="1.2"/><text x="914.0" y="88.0" class="io-label">cin</text></g>
<g class="io-net" data-net="net_clk"><line class="wire-seg" x1="448.0" y1="162.0" x2="908.0" y2="102.0" stroke="#906c93" stroke-width="1.2"/><text x="914.0" y="106.0" class="io-label">clk</text></g>
<g class="io-net" data-net="net_flg_z"><line class="wire-seg" x1="648.0" y1="66.0" x2="908.0" y2="120.0" stroke="#918ab9" stroke-width="1.2"/><text x="914.0" y="124.0" class="io-label">flg_z</text></g>
<g class="io-net" data-net="net_lgc0"><line class="wire-seg" x1="448.0" y1="234.0" x2="908.0" y2="138.0" stroke="#d29922" stroke-width="1.2"/><text x="914.0" y="142.0" class="io-label">lgc0</text></g>
<g class="io-net" data-net="net_lgc1"><line class="wire-seg" x1="448.0" y1="248.0" x2="908.0" y2="156.0" stroke="#d29922" stroke-width="1.2"/><text x="914.0" y="160.0" class="io-label">lgc1</text></g>
<g class="io-net" data-net="net_lgc2"><line class="wire-seg" x1="448.0" y1="262.0" x2="908.0" y2="174.0" stroke="#d29922" stroke-width="1.2"/><text x="914.0" y="178.0" class="io-label">lgc2</text></g>
<g class="io-net" data-net="net_lgc3"><line class="wire-seg" x1="448.0" y1="276.0" x2="908.0" y2="192.0" stroke="#d29922" stroke-width="1.2"/><text x="914.0" y="196.0" class="io-label">lgc3</text></g>
<g class="io-net" data-net="net_mem_rd"><line class="wire-seg" x1="448.0" y1="288.0" x2="908.0" y2="210.0" stroke="#b4b9a5" stroke-width="1.2"/><text x="914.0" y="214.0" class="io-label">mem_rd</text></g>
<g class="io-net" data-net="net_mem_wr"><line class="wire-seg" x1="448.0" y1="302.0" x2="908.0" y2="228.0" stroke="#8fea83" stroke-width="1.2"/><text x="914.0" y="232.0" class="io-label">mem_wr</text></g>
<g class="io-net" data-net="net_opc0"><line class="wire-seg" x1="48.0" y1="66.0" x2="908.0" y2="246.0" stroke="#5bebaa" stroke-width="1.2"/><text x="914.0" y="250.0" class="io-label">opc0</text></g>
<g class="io-net" data-net="net_opc1"><line class="wire-seg" x1="48.0" y1="80.0" x2="908.0" y2="264.0" stroke="#d4947b" stroke-width="1.2"/><text x="914.0" y="268.0" class="io-label">opc1</text></g>
<g class="io-net" data-net="net_opc2"><line class="wire-seg" x1="48.0" y1="94.0" x2="908.0" y2="282.0" stroke="#82b0a7" stroke-width="1.2"/><text x="914.0" y="286.0" class="io-label">opc2</text></g>
<g class="io-net" data-net="net_opc3"><line class="wire-seg" x1="48.0" y1="108.0" x2="908.0" y2="300.0" stroke="#d379a1" stroke-width="1.2"/><text x="914.0" y="304.0" class="io-label">opc3</text></g>
<g class="io-net" data-net="net_pc_load"><line class="wire-seg" x1="768.0" y1="66.0" x2="908.0" y2="318.0" stroke="#62e1a6" stroke-width="1.2"/><text x="914.0" y="322.0" class="io-label">pc_load</text></g>
<g class="io-net" data-net="net_pc_load_en"><line class="wire-seg" x1="648.0" y1="80.0" x2="908.0" y2="336.0" stroke="#d47bd4" stroke-width="1.2"/><text x="914.0" y="340.0" class="io-label">pc_load_en</text></g>
<g class="io-net" data-net="net_phase0"><line class="wire-seg" x1="48.0" y1="122.0" x2="908.0" y2="354.0" stroke="#8273d6" stroke-width="1.2"/><text x="914.0" y="358.0" class="io-label">phase0</text></g>
<g class="io-net" data-net="net_phase1"><line class="wire-seg" x1="48.0" y1="136.0" x2="908.0" y2="372.0" stroke="#6271d0" stroke-width="1.2"/><text x="914.0" y="376.0" class="io-label">phase1</text></g>
<g class="io-net" data-net="net_reg_we"><line class="wire-seg" x1="448.0" y1="330.0" x2="908.0" y2="390.0" stroke="#80fe94" stroke-width="1.2"/><text x="914.0" y="394.0" class="io-label">reg_we</text></g>
<g class="io-net" data-net="net_y_mux_sel"><line class="wire-seg" x1="448.0" y1="290.0" x2="908.0" y2="408.0" stroke="#d29922" stroke-width="1.2"/><text x="914.0" y="412.0" class="io-label">y_mux_sel</text></g>
<g class="io-net" data-net="net_y_oe"><line class="wire-seg" x1="448.0" y1="386.0" x2="908.0" y2="426.0" stroke="#f3d9f7" stroke-width="1.2"/><text x="914.0" y="430.0" class="io-label">y_oe</text></g>
</g>
<g id="gates">
<text x="108.0" y="32.0" text-anchor="middle" class="col-label">stage 1</text>
<g class="gate-node" data-unit-id="addr_157" data-kind="mux2_addr" transform="translate(48.0,48.0)"><rect class="gate-body" width="120.0" height="72.0" rx="6" fill="#21262d" stroke="#484f58" stroke-width="1.5"/><text x="60.0" y="16" text-anchor="middle" class="node-label">CW addr 157</text><text x="60.0" y="30" text-anchor="middle" class="node-kind">mux2_addr</text><text x="60.0" y="36.0" text-anchor="middle" class="sym">MUX</text></g>
<text x="308.0" y="32.0" text-anchor="middle" class="col-label">stage 2</text>
<g class="gate-node" data-unit-id="flash_cw" data-kind="rom16" transform="translate(248.0,48.0)"><rect class="gate-body" width="120.0" height="72.0" rx="6" fill="#21262d" stroke="#484f58" stroke-width="1.5"/><text x="60.0" y="16" text-anchor="middle" class="node-label">Flash $4000 CW</text><text x="60.0" y="30" text-anchor="middle" class="node-kind">rom16</text><text x="60.0" y="36.0" text-anchor="middle" class="sym">Flash</text></g>
<text x="508.0" y="32.0" text-anchor="middle" class="col-label">stage 3</text>
<g class="gate-node" data-unit-id="latch_alu" data-kind="latch8" transform="translate(448.0,48.0)"><rect class="gate-body" width="120.0" height="72.0" rx="6" fill="#21262d" stroke="#484f58" stroke-width="1.5"/><text x="60.0" y="16" text-anchor="middle" class="node-label">ALU cw 574</text><text x="60.0" y="30" text-anchor="middle" class="node-kind">latch8</text><text x="60.0" y="36.0" text-anchor="middle" class="sym">574</text></g>
<g class="gate-node" data-unit-id="latch_stb" data-kind="latch8" transform="translate(448.0,144.0)"><rect class="gate-body" width="120.0" height="72.0" rx="6" fill="#21262d" stroke="#484f58" stroke-width="1.5"/><text x="60.0" y="16" text-anchor="middle" class="node-label">strobe 574</text><text x="60.0" y="30" text-anchor="middle" class="node-kind">latch8</text><text x="60.0" y="36.0" text-anchor="middle" class="sym">574</text></g>
<text x="708.0" y="32.0" text-anchor="middle" class="col-label">stage 4</text>
<g class="gate-node" data-unit-id="beq_and" data-kind="and_gate" transform="translate(648.0,48.0)"><rect class="gate-body" width="120.0" height="72.0" rx="6" fill="#21262d" stroke="#484f58" stroke-width="1.5"/><text x="60.0" y="16" text-anchor="middle" class="node-label">BEQ PC_LOAD∧Z</text><text x="60.0" y="30" text-anchor="middle" class="node-kind">and_gate</text><text x="60.0" y="36.0" text-anchor="middle" class="sym">&amp;</text></g>
</g>
</svg>